<svg width="199" height="199" viewBox="-7 0 199 199" fill="none" xmlns="http://www.w3.org/2000/svg">
<path d="M150.026 1.5L183.5 44.5137V197.5H1.5V1.5H150.026Z" fill="#F0EADD" stroke="#2A2A2E" stroke-width="3" stroke-linejoin="round"/>
<path d="M156 89.3125V159.59L91.3115 184.85L28 159.602V89.2998L91.3135 58.2227L156 89.3125Z" fill="#A0522D" stroke="#2A2A2E" stroke-width="4"/>
<rect x="46.963" y="140.941" width="3.3406" height="27.9464" transform="rotate(48.6002 46.963 140.941)" fill="#2A2A2E"/>
<rect x="133.471" y="143.447" width="3.3406" height="27.9424" transform="rotate(-48.6 133.471 143.447)" fill="#2A2A2E"/>
<rect x="138.46" y="144.025" width="3.3406" height="57.1491" transform="rotate(-162.32 138.46 144.025)" fill="#2A2A2E"/>
<rect x="46.5423" y="143.913" width="3.3406" height="57.1501" transform="rotate(162.317 46.5423 143.913)" fill="#2A2A2E"/>
<rect x="135.599" y="141.66" width="3.3406" height="89.7435" transform="rotate(89.0079 135.599 141.66)" fill="#2A2A2E"/>
<rect x="93.2638" y="186.09" width="3.3406" height="59.6055" transform="rotate(-132.1 93.2638 186.09)" fill="#2A2A2E"/>
<rect x="91.6739" y="183.829" width="3.3406" height="59.9318" transform="rotate(132.099 91.6739 183.829)" fill="#2A2A2E"/>
<rect x="88.979" y="76.8201" width="3.3406" height="81.2803" transform="rotate(34 88.979 76.8201)" fill="#2A2A2E"/>
<rect x="89.218" y="76.8819" width="3.3406" height="81.2803" transform="rotate(-34 89.218 76.8819)" fill="#2A2A2E"/>
<rect x="90.819" y="75.0138" width="3.3406" height="63.7011" transform="rotate(77.1658 90.819 75.0138)" fill="#2A2A2E"/>
<rect x="154.968" y="88.0251" width="3.3406" height="63.7011" transform="rotate(101.786 154.968 88.0251)" fill="#2A2A2E"/>
<path d="M89.2489 60.0913L92.5895 60.0922L92.5597 78.6667L89.2191 78.6657L89.2489 60.0913Z" fill="#2A2A2E"/>
<rect x="44.5" y="8.5" width="79" height="26" fill="#A0522D" stroke="#2A2A2E" stroke-width="3"/>
<rect x="102" y="11" width="11" height="19" fill="#2A2A2E"/>
</svg>
